HIERARCHY
ROOT hip
{
	OFFSET 0.000000 0.000000 0.000000 
	CHANNELS 6 Xposition Yposition Zposition Xrotation Zrotation Yrotation
	JOINT abdomen
	{
		OFFSET 0.000000 3.402643 0.000000 
		CHANNELS 3 Xrotation Zrotation Yrotation
		JOINT chest
		{
			OFFSET 0.000000 8.438565 -0.680529 
			CHANNELS 3 Xrotation Zrotation Yrotation
			JOINT neck
			{
				OFFSET 0.000000 10.207942 -0.272212 
				CHANNELS 3 Xrotation Zrotation Yrotation
				JOINT head
				{
					OFFSET 0.000000 3.130431 0.000000 
					CHANNELS 3 Xrotation Zrotation Yrotation
					End Site
					{
						OFFSET 0.000000 3.130435 0.000000 
					}
				}
			}
			JOINT lCollar
			{
				OFFSET 3.470700 6.669187 -0.816635 
				CHANNELS 3 Yrotation Zrotation Xrotation
				JOINT lShldr
				{
					OFFSET 3.198488 0.000000 0.000000 
					CHANNELS 3 Zrotation Yrotation Xrotation
					JOINT lForeArm
					{
						OFFSET 10.139888 0.000000 0.000000 
						CHANNELS 3 Yrotation Zrotation Xrotation
						JOINT lHand
						{
							OFFSET 8.370511 0.000000 0.000000 
							CHANNELS 3 Zrotation Yrotation Xrotation
							End Site
							{
								OFFSET 4.083176 0.000000 0.000000 
							}
						}
					}
				}
			}
			JOINT rCollar
			{
				OFFSET -3.470700 6.669187 -0.816635 
				CHANNELS 3 Yrotation Zrotation Xrotation
				JOINT rShldr
				{
					OFFSET -3.198488 0.000000 0.000000 
					CHANNELS 3 Zrotation Yrotation Xrotation
					JOINT rForeArm
					{
						OFFSET -10.139888 0.000000 0.000000 
						CHANNELS 3 Yrotation Zrotation Xrotation
						JOINT rHand
						{
							OFFSET -8.370511 0.000000 0.000000 
							CHANNELS 3 Zrotation Yrotation Xrotation
							End Site
							{
								OFFSET -4.083176 0.000000 0.000000 
							}
						}
					}
				}
			}
		}
	}
	JOINT lThigh
	{
		OFFSET 5.308129 -1.633274 1.361059 
		CHANNELS 3 Xrotation Zrotation Yrotation
		JOINT lShin
		{
			OFFSET -2.041588 -20.007561 0.000000 
			CHANNELS 3 Xrotation Zrotation Yrotation
			JOINT lFoot
			{
				OFFSET 0.000000 -19.190928 -1.224953 
				CHANNELS 3 Xrotation Yrotation Zrotation
				End Site
				{
					OFFSET 0.000000 -2.449906 4.627600 
				}
			}
		}
	}
	JOINT rThigh
	{
		OFFSET -5.308129 -1.633274 1.361059 
		CHANNELS 3 Xrotation Zrotation Yrotation
		JOINT rShin
		{
			OFFSET 2.041588 -20.007561 0.000000 
			CHANNELS 3 Xrotation Zrotation Yrotation
			JOINT rFoot
			{
				OFFSET 0.000000 -19.190928 -1.224953 
				CHANNELS 3 Xrotation Yrotation Zrotation
				End Site
				{
					OFFSET 0.000000 -2.449906 4.627600 
				}
			}
		}
	}
}
MOTION
Frames: 11
Frame Time: 0.016667
0.349639 44.920887 -0.275114 -7.715480 -0.735469 4.064470 -18.118000 -1.385530 -2.862760 19.775200 1.122940 -1.597340 -2.028570 2.383970 -8.355280 6.745720 5.876360 -3.557360 2.000000 -2.000000 0.000000 87.695999 176.266006 -6.746560 24.834299 -0.338922 0.057480 0.076145 -0.090414 -167.097000 -2.000000 2.000000 0.000000 -90.458099 -173.091995 -2.527390 -28.818701 0.334632 0.065905 -0.076037 0.060565 -159.098999 7.267419 -7.811141 1.580385 16.199697 4.005868 1.048483 -17.809290 21.176731 5.367178 -5.406600 1.408454 7.326231 21.914305 -3.912333 -1.442598 -7.640823 -11.066854 -1.446039 
0.361987 44.904442 -0.326372 -7.824430 -1.344790 4.501140 -17.869101 -1.252370 -3.091670 19.872900 1.035080 -1.692040 -2.290910 3.759890 -9.065670 6.809510 6.539220 -3.801440 2.000000 -2.000000 0.000000 87.803101 176.751007 -5.515020 25.625299 -0.338117 0.059188 0.068257 -0.093560 -168.406006 -2.000000 2.000000 0.000000 -90.497200 -173.227997 -2.312200 -30.283501 0.332908 0.068946 -0.076151 0.060843 -159.207001 6.789536 -7.044796 1.771082 17.355230 4.018279 1.134595 -18.398026 20.567265 5.391358 -5.230272 2.022152 6.977622 21.778261 -3.898074 -1.450366 -7.648124 -11.241279 -1.495682 
0.340930 44.892109 -0.398542 -7.686440 -0.871010 4.951520 -17.839300 -1.293970 -3.119320 19.736099 1.367050 -1.718790 -0.748981 3.747900 -9.972830 7.298240 6.213530 -4.271970 2.000000 -2.000000 0.000000 87.812698 176.835999 -4.264830 27.197599 -0.336449 0.062547 0.070088 -0.086713 -169.636993 -2.000000 2.000000 0.000000 -90.721703 -173.011993 -1.619390 -32.373402 0.330316 0.073206 -0.077843 0.064819 -160.750000 6.463639 -7.411305 1.692574 17.531233 3.992780 1.130536 -18.022718 20.392799 5.175539 -5.770162 1.507790 6.679459 22.811020 -3.845162 -1.513615 -8.135038 -11.241632 -1.644666 
0.277105 44.889412 -0.518830 -6.934220 -0.765842 5.307970 -17.578899 -1.424040 -2.965960 20.107300 1.240200 -1.660110 -0.416375 4.796240 -11.059700 7.545990 6.455130 -4.738460 2.000000 -2.000000 0.000000 88.437500 177.457001 -2.603290 29.053101 -0.334362 0.066452 0.071997 -0.089615 -170.876999 -2.000000 2.000000 0.000000 -90.604698 -173.966995 -1.099380 -34.033600 0.328147 0.076520 -0.078525 0.066341 -161.345993 5.159966 -7.551852 1.863416 18.187695 3.977802 1.194290 -17.444126 20.297407 5.042202 -7.148608 1.346718 6.607100 23.803661 -3.663051 -1.610274 -8.271458 -11.453545 -1.831942 
0.248620 44.867046 -0.600301 -6.738370 -0.300643 5.611690 -17.585600 -1.482240 -3.121610 19.775101 1.611180 -1.760250 0.298963 5.227010 -11.787400 7.842230 6.598570 -5.095110 2.000000 -2.000000 0.000000 88.339798 177.065002 -1.891770 31.064800 -0.331958 0.070606 -179.925995 -179.908005 8.039260 -2.000000 2.000000 0.000000 -90.936798 -174.298004 -0.590722 -35.840199 0.325678 0.080054 -0.078221 0.065668 -161.082001 4.942786 -7.884669 1.925725 17.987024 3.890517 1.201973 -16.901617 20.076347 4.821177 -8.204910 0.749160 6.132856 25.581158 -3.558800 -1.742369 -9.357381 -11.179632 -2.080567 
0.218134 44.831196 -0.699751 -6.523440 0.029107 5.777920 -17.177799 -1.674430 -3.023350 19.863100 1.435440 -1.736120 0.623452 5.211640 -12.702100 8.037650 6.479730 -5.539820 2.000000 -2.000000 0.000000 88.867104 177.365005 -0.777767 33.183899 -0.329269 0.074888 -179.923996 -179.895004 6.633030 -2.000000 2.000000 0.000000 -91.054398 -175.945999 0.565821 -37.070702 0.323934 0.082416 -0.078763 0.066864 -161.550995 4.670231 -8.124297 1.938775 18.007254 3.798532 1.218152 -16.950117 19.682957 4.815661 -9.258629 0.301107 5.744505 27.277084 -3.440356 -1.878387 -10.072646 -10.885370 -2.241560 
0.164302 44.802799 -0.710071 -6.213060 1.495080 6.214260 -16.790701 -2.097090 -2.930060 20.068199 1.669860 -1.762280 0.401775 5.983970 -13.436000 7.992080 6.830930 -5.872710 2.000000 -2.000000 0.000000 89.101402 177.315002 -0.133354 35.459400 -0.326208 0.079371 -179.923004 -179.904007 6.310750 -2.000000 2.000000 0.000000 -91.308502 -177.595001 1.029020 -38.232800 0.322240 0.084611 -0.078054 0.065294 -160.934998 5.439168 -9.641705 1.691226 15.876639 3.807223 1.064482 -15.250965 19.820934 4.250821 -10.571474 -1.353256 5.659240 29.612654 -3.379142 -2.047188 -12.132277 -10.712368 -2.636903 
0.023949 44.863316 -0.906009 -5.429720 0.184714 6.535180 -16.797100 -1.552030 -3.002750 19.501600 1.581760 -1.718570 -0.073904 6.948690 -14.108600 7.849510 7.309860 -6.161210 2.000000 -2.000000 0.000000 89.072098 177.470001 0.296705 37.373402 -0.323497 0.083046 -179.912003 -179.893005 5.607650 -2.000000 2.000000 0.000000 -92.158302 -179.546005 2.098540 -39.306999 0.320635 0.086610 -0.078469 0.066217 -161.296997 3.594635 -8.070512 1.763370 17.219507 3.647091 1.192704 -15.706863 19.395403 4.425339 -11.657030 0.077017 5.919291 28.899975 -3.243284 -2.031026 -12.296882 -11.818855 -3.003915 
-0.096631 44.901108 -1.028020 -4.658250 0.243334 7.323920 -16.404600 -1.555530 -3.096190 19.491800 1.532940 -1.756990 0.680146 7.060640 -14.595900 8.163890 7.248010 -6.418620 2.000000 -2.000000 0.000000 89.394501 177.966003 1.020550 39.394901 -0.320502 0.086826 -179.910995 -179.889999 4.601770 -2.000000 2.000000 0.000000 -92.705200 177.682999 3.052420 -40.039501 0.319519 0.087955 -0.077987 0.065144 -160.876999 2.413469 -7.863438 1.683564 17.592440 3.492043 1.246937 -15.090583 18.878475 4.249172 -12.613597 -0.178905 5.547862 28.351374 -3.220482 -2.012181 -11.893601 -12.882598 -3.212593 
-0.290102 44.985405 -1.221691 -3.623060 -0.175430 7.833370 -16.202600 -1.260560 -2.919390 19.149900 1.552270 -1.629900 1.575830 7.282340 -14.959700 8.488500 7.224810 -6.622390 2.000000 -2.000000 0.000000 89.345703 178.240005 1.001670 41.787498 -0.316788 0.091161 -179.921005 -179.899994 4.660350 -2.000000 2.000000 0.000000 -93.417702 174.744995 3.685310 -40.586300 0.318675 0.088950 -0.077887 0.064919 -160.789001 0.971094 -7.156599 1.525076 17.456764 3.323184 1.264066 -14.957763 18.289547 4.206416 -13.938495 0.198746 5.816365 27.098326 -3.156902 -1.962497 -9.814284 -14.074697 -3.017938 
-0.369779 44.970497 -1.190933 -3.009130 1.696880 8.729210 -15.610800 -1.644890 -2.753160 19.325600 1.786700 -1.620400 2.250560 7.527490 -14.892200 8.666030 7.251890 -6.627230 2.000000 -2.000000 0.000000 89.414101 178.649002 1.559510 43.643002 -0.313785 0.094413 -179.919006 -179.899002 4.015820 -2.000000 2.000000 0.000000 -94.374001 171.738998 4.347230 -40.937901 0.318127 0.089586 -0.078121 0.065444 -160.994003 1.666548 -8.989427 1.631824 15.184053 3.158818 1.139503 -13.166865 17.883350 3.683115 -14.846973 -2.105368 5.208114 27.705217 -3.264063 -1.961092 -7.559457 -14.137692 -2.428506 
